<svg xmlns="http://www.w3.org/2000/svg" width="819.918" height="306.051" viewBox="0 0 819.918 306.051">
  <g id="グループ_866" data-name="グループ 866" transform="translate(-293 -268.939)">
    <path id="合体_13" data-name="合体 13" d="M282.772,260.029Q241.783,197.3,166.154,203.387a57.558,57.558,0,0,0-35.366-51.329,114.579,114.579,0,0,0-74.2,1.771A133.792,133.792,0,0,0,33.62,54.707,71.908,71.908,0,0,0,3.572,31.693a10.123,10.123,0,0,1-3.508-8.85L233.3,86.565a93.821,93.821,0,0,1,74.2-14.158q-79.518,45.153-10.6,107.972l24.735,15.928c-.076-.1,2.052-3.723,0,0,.043.057,3.365,1.948,5.419,3.2l-.025-.028c46.729,19.3,72.132,32.344,82.959,81.8,10.692-48.84,40.86-65.265,86.615-84.252-.1.011.232-.18.637-.373.474-.225,1.04-.448,1.1-.348,0,0,38.337-26.573,51.239-46.022,7.423-14.575,12.812-26.551,3.537-46.022s-24.7-24.722-40.637-31.857a106.2,106.2,0,0,1,74.2,14.158Q699.971,52.658,814.619,22.843l5.3,3.543q-68.769,45.729-56.545,127.443a140.627,140.627,0,0,0-67.147-5.306A57.528,57.528,0,0,0,653.821,203.4q-81.613-6.05-123.672,63.708-74.026-23.069-120.155,38.943C380.555,267.15,331.079,249.448,282.772,260.029Zm215.64-63.6Zm0,0-.005-.009Zm-.006-.01,0-.005Zm-.01-.016-.01-.017Zm-.017-.028-.006-.011Zm-.011-.018,0-.007Zm-.008-.014-.014-.023C498.349,196.321,498.353,196.329,498.358,196.336Zm-90.005.967A98.654,98.654,0,0,1,315.1,93.556a98.555,98.555,0,0,1,114.463-92.2,77.349,77.349,0,0,0-55.746,129.042,77.092,77.092,0,0,0,109.012,5.723,77.288,77.288,0,0,0,25.124-65.545,98.819,98.819,0,0,1-28.511,101.509h0a97.785,97.785,0,0,1-65.7,25.37Q411.057,197.452,408.352,197.3ZM424.579,93.438a25.985,25.985,0,0,0-18.942-20.431l-9.546-2.5,9.553-2.452a25.984,25.984,0,0,0,19.071-20.259l1.552-8.05,1.546,8.043a25.982,25.982,0,0,0,19.057,20.273l9.539,2.445-9.539,2.5a25.985,25.985,0,0,0-18.95,20.438l-1.667,9.069Z" transform="translate(293 268.939)" fill="#9ed2e5"/>
  </g>
</svg>
